PathFileType	4	(X/Y/Z)	/Users/niels/Desktop/University/Third Semester/Perception and Action/Exam/Gymnastics Motion Tracking/Code for Gym Tracking/Analyzed Data/Webcam_Backflip/id2_3_trajectory_Sports2D/id2_3_trajectory_Sports2D_px_person00.trc
DataRate	CameraRate	NumFrames	NumMarkers	Units	OrigDataRate	OrigDataStartFrame	OrigNumFrames
29.71698113207547	29.71698113207547	8	22	m	29.71698113207547	13	106
Frame#	Time	Hip			RHip			RKnee			RAnkle			RBigToe			RSmallToe			RHeel			LHip			LKnee			LAnkle			LBigToe			LSmallToe			LHeel			Neck			Head			Nose			RShoulder			RElbow			RWrist			LShoulder			LElbow			LWrist		
		X1	Y1	Z1	X2	Y2	Z2	X3	Y3	Z3	X4	Y4	Z4	X5	Y5	Z5	X6	Y6	Z6	X7	Y7	Z7	X8	Y8	Z8	X9	Y9	Z9	X10	Y10	Z10	X11	Y11	Z11	X12	Y12	Z12	X13	Y13	Z13	X14	Y14	Z14	X15	Y15	Z15	X16	Y16	Z16	X17	Y17	Z17	X18	Y18	Z18	X19	Y19	Z19	X20	Y20	Z20	X21	Y21	Z21	X22	Y22	Z22
13	0.4374603174603174	0.9229845603903706	-0.5850628474557809	0.0	0.9148813951131328	-0.5820043350820424	0.0	0.977264872539203	-0.6953521299489641	0.0	0.9490373599210874	-0.8209923759918014	0.0	1.0008493738064697	-0.8391311905411445	0.0	0.9892216529644485	-0.8452384239481894	0.0	0.9369980292104149	-0.8378440740349579	0.0	0.9325778372539766	-0.5823213092304953	0.0	0.9882651252511011	-0.6874651025092743	0.0	0.9541751244835338	-0.8053846056974096	0.0	1.0025762282303758	-0.8315907758815381	0.0	0.9974427588453019	-0.8249085064920955	0.0	0.9364027520513495	-0.8217736760006188	0.0	1.0144814922760805	-0.44472689940505317	0.0	1.0912862637097702	-0.3983679839585297	0.0	1.0745407148343522	-0.4346652554545123	0.0	1.0023036422011617	-0.4491694293214265	0.0	0.9073990653780161	-0.44010264838437385	0.0	0.8223610075102278	-0.44053022797527147	0.0	0.9989276682077168	-0.44462159281827507	0.0	0.9244839887488224	-0.4582089062686479	0.0	0.8741469100587028	-0.4804692289219314	0.0
14	0.47111111111111104	0.9201521940854281	-0.5955322271108191	0.0	0.9111166057659926	-0.5927188602077985	0.0	0.9832351639999306	-0.7007276667663679	0.0	0.9492769754447271	-0.8243670723310385	0.0	0.9999382231991819	-0.8411821573030831	0.0	0.9887153945917055	-0.8474634063996284	0.0	0.9365524879740833	-0.8407137077714846	0.0	0.932504229534904	-0.5924065966394497	0.0	0.9971962656074794	-0.6907833886191228	0.0	0.9559036117618547	-0.8064255076942075	0.0	1.0056001153653416	-0.8347970390342283	0.0	0.9999588574400469	-0.827002769980553	0.0	0.9389144352158549	-0.8233969135709434	0.0	1.0140764622427363	-0.4570590315023369	0.0	1.0873893809545825	-0.4087826953491886	0.0	1.0726207505980052	-0.4443444625810841	0.0	0.9991733844541805	-0.4631223711378538	0.0	0.9056002625750057	-0.4630649214127072	0.0	0.8208899329337412	-0.47099161498366204	0.0	0.9976060408644617	-0.4582080843920042	0.0	0.9196056109175743	-0.47726728916748484	0.0	0.8669538571751808	-0.5026002164272645	0.0
15	0.5047619047619047	0.9183993061369201	-0.6101508296253852	0.0	0.9090628366332129	-0.6076172326307732	0.0	0.9890216695569405	-0.7103472141562993	0.0	0.9497328756138473	-0.8320172598990402	0.0	0.9991298183916588	-0.8478054269337498	0.0	0.9883384221514293	-0.8541483009579145	0.0	0.936393638870807	-0.8477524049807652	0.0	0.9325395002893503	-0.6065417730650035	0.0	1.0038949015456506	-0.6988928972079764	0.0	0.9575791684735164	-0.8129145002843872	0.0	1.0087544026300075	-0.8417155054621468	0.0	1.002387228646568	-0.8327783976836819	0.0	0.9411594402281825	-0.830196249834072	0.0	1.0120063678159876	-0.4712084244632284	0.0	1.0801886658418336	-0.4194731965594539	0.0	1.0682330861169032	-0.45517030719487117	0.0	0.994535993193481	-0.4796267001138455	0.0	0.9064354534172022	-0.49330101294792694	0.0	0.8272266114811895	-0.5124643133132496	0.0	0.9949070980784271	-0.47450054415621606	0.0	0.917553112661677	-0.5025586504760015	0.0	0.8664781485393813	-0.5339182703055784	0.0
16	0.5384126984126983	0.9176227144942529	-0.6283900890754691	0.0	0.9087392985032706	-0.6263545318530248	0.0	0.9938351697265397	-0.7245420772340726	0.0	0.9503920665635761	-0.8447109798453566	0.0	0.9987463328874207	-0.8597188822190153	0.0	0.9883023021282165	-0.8660367599862737	0.0	0.9366802281133154	-0.8596486879248155	0.0	0.9323458769371149	-0.6245418259616267	0.0	1.0074117035585735	-0.7125040856581041	0.0	0.9588425266285819	-0.8257939446718867	0.0	1.01153253206466	-0.8525268661912639	0.0	1.0044914472682271	-0.842642081090171	0.0	0.9423169580806222	-0.8428340427237796	0.0	1.007517923483446	-0.4863354334331452	0.0	1.0691640858315008	-0.4298332211615334	0.0	1.0608908129745773	-0.4663784713579424	0.0	0.988433067761879	-0.49792587740879907	0.0	0.911725412257869	-0.5284079344174532	0.0	0.8450315373385673	-0.561065946967784	0.0	0.9906952923195187	-0.49266461620114615	0.0	0.9208286444325531	-0.5321312376540716	0.0	0.8775460635105132	-0.5710699415370134	0.0
17	0.5720634920634919	0.9176279361400295	-0.6491870227038219	0.0	0.9098038554469089	-0.6480330693546618	0.0	0.9967520830519906	-0.7432647909773219	0.0	0.9511153344642459	-0.8626075802445716	0.0	0.9988543881416693	-0.8767683764919633	0.0	0.9885962091409356	-0.8831138480352084	0.0	0.9373795005476273	-0.8765377307193513	0.0	0.9320535879658418	-0.6456251999145747	0.0	1.007562997771555	-0.7315043769640328	0.0	0.9594391184344084	-0.8447996636499896	0.0	1.0133540241982713	-0.8667489704903667	0.0	1.0058079351451068	-0.856506088637293	0.0	0.941998195371003	-0.8608005236900915	0.0	1.0001943263906317	-0.5015725140010239	0.0	1.0538980715013335	-0.4393685533005868	0.0	1.0503424555729224	-0.47711033653987156	0.0	0.9808965276646548	-0.516890702751307	0.0	0.9227915684150522	-0.5640965998121065	0.0	0.8764600170375078	-0.6090990398350243	0.0	0.9851029268026861	-0.5115704771187847	0.0	0.9315065527217189	-0.5620948563625859	0.0	0.9036585977018594	-0.6072402475404653	0.0
18	0.6057142857142856	0.9182345896444909	-0.6708390268104301	0.0	0.9116750838949196	-0.6709351506934501	0.0	0.9970556298066229	-0.7655915654481047	0.0	0.9516632867189214	-0.8846566636461694	0.0	0.999442322790806	-0.8974293986641295	0.0	0.9891534585649879	-0.9041509434484457	0.0	0.9382080011704578	-0.8974869280454799	0.0	0.932036708012771	-0.6681317192529246	0.0	1.0047980265283392	-0.7546333073419791	0.0	0.9592532149358493	-0.8682086163891601	0.0	1.0138248643339203	-0.8833530580986138	0.0	1.0057406058263463	-0.8736597501687547	0.0	0.9403571334671119	-0.8822785483927135	0.0	0.9901593651079086	-0.5160220108797944	0.0	1.0342353023085677	-0.44774361849199834	0.0	1.0366608800053787	-0.4865326165585834	0.0	0.9720467803686205	-0.5349169811715853	0.0	0.9395676253671742	-0.5944719442348455	0.0	0.9201450948625152	-0.6460763794651557	0.0	0.9784917947148432	-0.5296523521001514	0.0	0.9494744093170775	-0.5868728326621727	0.0	0.9434051886332983	-0.6328935248600026	0.0
19	0.6393650793650792	0.9194032586120195	-0.6909532572878219	0.0	0.9138735545173203	-0.692448314015837	0.0	0.9946146394974419	-0.7891966552467127	0.0	0.9517403315518442	-0.9082630542178102	0.0	1.000492253990317	-0.9189564302382901	0.0	0.9899310034484103	-0.9266998682092222	0.0	0.938687537272715	-0.9201814094989594	0.0	0.9325961149110336	-0.6894974636081364	0.0	0.9999036932542781	-0.7793688150680878	0.0	0.9582055186468497	-0.8929503439291636	0.0	1.0128090953780995	-0.9010987447424462	0.0	1.0038602511456243	-0.8927630016919299	0.0	0.9378008799815932	-0.9045358076732541	0.0	0.9780101654539359	-0.528539679587146	0.0	1.0105785263689078	-0.4547002104673998	0.0	1.02022571838733	-0.49382821080013345	0.0	0.9622687361428189	-0.5498601647398669	0.0	0.9600091736668895	-0.6131807009659211	0.0	0.9700407415355266	-0.661720088336465	0.0	0.9710811052137162	-0.5448053509415098	0.0	0.9712566352317358	-0.6005394352128531	0.0	0.988997231559269	-0.6388074221957541	0.0
20	0.673015873015873	0.9212238478182203	-0.7065529005818264	0.0	0.9163309899325589	-0.70932904439511	0.0	0.9900581980185281	-0.8104416786934263	0.0	0.9511182961702109	-0.9297680088532837	0.0	1.0016293339728601	-0.9382295428530291	0.0	0.9906788234769637	-0.9476207152160964	0.0	0.938413224660015	-0.9412902620674645	0.0	0.9337941047363743	-0.7064790621351734	0.0	0.993817454437414	-0.8020573273413121	0.0	0.9562491431531142	-0.9153538694468102	0.0	1.0103926623533033	-0.9184441558790667	0.0	1.0002186530504518	-0.9118673984736367	0.0	0.9347939906002053	-0.9246718369663388	0.0	0.9644904100009833	-0.5375651882633324	0.0	0.983858198051517	-0.4597725049447861	0.0	1.0015480910581687	-0.4979802477133402	0.0	0.9520755602798548	-0.5592305460560124	0.0	0.979981494882019	-0.6153511345744376	0.0	1.0163857849122326	-0.6500511240736532	0.0	0.9625400155663025	-0.5546336007174566	0.0	0.990986485324281	-0.5991078833796334	0.0	1.0292369456838122	-0.6206229629487209	0.0
